<svg xmlns="http://www.w3.org/2000/svg" width="390" height="844" viewBox="0 0 390 844"><rect x="0" y="0" width="390" height="844" rx="0" fill="#F4EBDD" stroke="none"/><rect x="0" y="0" width="390" height="7" rx="0" fill="#6B2E2E" stroke="none"/><text x="22" y="39" fill="#6B2E2E" font-family="Noto Sans" font-size="11" font-weight="700">SMGS  /  BẮT ĐẦU KHÁM PHÁ</text><text x="22" y="85" fill="#3B302A" font-family="Noto Serif" font-size="29" font-weight="400">Mở câu chuyện hiện vật</text><text x="22" y="129" fill="#5F4D44" font-family="Noto Sans" font-size="14" font-weight="400">Chọn cách bạn muốn bắt đầu.</text><rect x="22" y="182" width="346" height="170" rx="14" fill="#6B2E2E" stroke="none"/><circle cx="326" cy="206" r="55" fill="#B38B59" fill-opacity=".23"/><circle cx="343" cy="237" r="84" fill="none" stroke="#B38B59" stroke-opacity=".5"/><text x="44" y="223" fill="#F9F2E9" font-family="Noto Sans" font-size="12" font-weight="700">07  /  CẨM NANG DI SẢN</text><text x="44" y="267" fill="#F9F2E9" font-family="Noto Serif" font-size="22" font-weight="400">Mở câu chuyện hiện vật</text><text x="44" y="325" fill="#F9F2E9" font-family="Noto Sans" font-size="10" font-weight="700">KHÁM PHÁ THEO CÁCH CỦA BẠN  →</text><rect x="22" y="378" width="346" height="84" rx="10" fill="#F8F1E7" stroke="#DACBB5"/><rect x="22" y="378" width="4" height="84" rx="2" fill="#B38B59" stroke="none"/><text x="42" y="404" fill="#B38B59" font-family="Noto Sans" font-size="12" font-weight="700">01</text><text x="76" y="406" fill="#6B2E2E" font-family="Noto Serif" font-size="18" font-weight="400">Quét mã hiện vật</text><text x="76" y="438" fill="#5F4D44" font-family="Noto Sans" font-size="11" font-weight="400">Chạm để xem chi tiết và tiếp tục hành trình.</text><rect x="22" y="474" width="346" height="84" rx="10" fill="#F8F1E7" stroke="#DACBB5"/><rect x="22" y="474" width="4" height="84" rx="2" fill="#B38B59" stroke="none"/><text x="42" y="500" fill="#B38B59" font-family="Noto Sans" font-size="12" font-weight="700">02</text><text x="76" y="502" fill="#6B2E2E" font-family="Noto Serif" font-size="18" font-weight="400">Nhận diện qua hình ảnh</text><text x="76" y="534" fill="#5F4D44" font-family="Noto Sans" font-size="11" font-weight="400">Chạm để xem chi tiết và tiếp tục hành trình.</text><rect x="22" y="570" width="346" height="84" rx="10" fill="#F8F1E7" stroke="#DACBB5"/><rect x="22" y="570" width="4" height="84" rx="2" fill="#B38B59" stroke="none"/><text x="42" y="596" fill="#B38B59" font-family="Noto Sans" font-size="12" font-weight="700">03</text><text x="76" y="598" fill="#6B2E2E" font-family="Noto Serif" font-size="18" font-weight="400">Xem danh sách hiện vật</text><text x="76" y="630" fill="#5F4D44" font-family="Noto Sans" font-size="11" font-weight="400">Chạm để xem chi tiết và tiếp tục hành trình.</text><rect x="22" y="674" width="346" height="48" rx="8" fill="#6B2E2E" stroke="none"/><text x="42" y="705" fill="#F9F2E9" font-family="Noto Sans" font-size="15" font-weight="700">Tiếp tục  →</text><path d="M0 768L390 768" stroke="#DACBB5" stroke-width="1"/><rect x="0" y="769" width="390" height="75" rx="0" fill="#F8F1E7" stroke="none"/><circle cx="39" cy="792" r="7" fill="#B38B59"/><text x="17" y="819" fill="#5F4D44" font-family="Noto Sans" font-size="9" font-weight="400">Trang chủ</text><circle cx="117" cy="792" r="7" fill="#B38B59"/><text x="95" y="819" fill="#5F4D44" font-family="Noto Sans" font-size="9" font-weight="400">Khám phá</text><circle cx="195" cy="792" r="7" fill="#B38B59"/><text x="173" y="819" fill="#5F4D44" font-family="Noto Sans" font-size="9" font-weight="400">Quét mã</text><circle cx="273" cy="792" r="7" fill="#B38B59"/><text x="251" y="819" fill="#5F4D44" font-family="Noto Sans" font-size="9" font-weight="400">Hành trình</text><circle cx="351" cy="792" r="7" fill="#B38B59"/><text x="329" y="819" fill="#5F4D44" font-family="Noto Sans" font-size="9" font-weight="400">Cá nhân</text></svg>